<?xml version="1.0" standalone="no"?>
<!DOCTYPE svg PUBLIC "-//W3C//DTD SVG 20010904//EN"
 "http://www.w3.org/TR/2001/REC-SVG-20010904/DTD/svg10.dtd">
<svg version="1.0" xmlns="http://www.w3.org/2000/svg"
 width="275.000000pt" height="275.000000pt" viewBox="0 0 275.000000 275.000000"
 preserveAspectRatio="xMidYMid meet">
<style>
    .s0 { fill: #1719b0 } 
</style>
<g transform="translate(0.000000,275.000000) scale(0.100000,-0.100000)"
fill="#000000" stroke="none">
<path class="s0" d="M1230 2714 c-70 -9 -191 -35 -257 -56 l-68 -21 98 -13 c54 -7 139
-25 190 -39 184 -53 459 -205 650 -359 l69 -55 46 15 c89 27 250 53 340 56
108 3 108 2 -5 108 -189 177 -418 296 -666 346 -72 14 -331 26 -397 18z"/>
<path class="s0" d="M764 2475 c-240 -52 -340 -268 -269 -581 29 -126 103 -303 179 -422
l27 -43 66 62 c241 225 661 496 946 608 31 13 57 26 57 30 0 7 -124 91 -217
145 -158 94 -366 173 -529 201 -104 18 -178 18 -260 0z"/>
<path class="s0" d="M251 2116 c-278 -426 -293 -975 -39 -1409 l42 -72 17 87 c23 118 34
147 91 260 50 99 137 228 191 285 l30 32 -47 75 c-154 246 -251 560 -233 751
4 36 4 65 1 65 -2 0 -26 -33 -53 -74z"/>
<path class="s0" d="M2260 2139 c-76 -12 -229 -50 -234 -58 -2 -3 30 -42 72 -86 137 -145
280 -355 267 -394 -13 -41 -47 -25 -97 47 -58 82 -187 224 -288 315 -66 61
-78 68 -105 63 -53 -11 -386 -182 -523 -270 -180 -115 -343 -240 -462 -353
-55 -52 -100 -98 -100 -102 0 -10 117 -150 211 -253 103 -112 257 -248 378
-332 l84 -60 83 43 c82 42 376 230 387 247 2 5 0 32 -6 60 -9 46 -8 56 14 100
18 37 35 55 69 72 138 71 281 -72 214 -214 -27 -56 -68 -79 -145 -80 l-66 -1
-113 -82 c-62 -45 -160 -110 -216 -144 -57 -34 -103 -65 -104 -68 0 -8 147
-75 242 -110 114 -42 261 -69 374 -69 l99 0 63 68 c393 416 463 1080 166 1580
l-55 92 -77 -1 c-42 -1 -102 -5 -132 -10z"/>
<path class="s0" d="M644 1142 c-169 -216 -255 -437 -213 -549 41 -110 208 -162 429 -133
105 14 302 65 393 103 l58 24 -28 18 c-155 101 -408 329 -540 487 -35 43 -68
78 -71 77 -4 0 -17 -12 -28 -27z"/>
<path class="s0" d="M1365 483 c-85 -44 -242 -103 -363 -135 -107 -29 -130 -31 -279 -32
-90 -1 -163 -2 -163 -4 0 -1 35 -25 77 -53 342 -223 771 -278 1158 -149 50 17
125 48 168 69 82 41 197 112 197 122 0 3 -42 9 -92 12 -165 11 -345 62 -527
148 -57 27 -109 49 -115 49 -6 -1 -33 -13 -61 -27z"/>
</g>
</svg>
