<?xml version="1.0" encoding="iso-8859-1"?>
<!-- Generator: Adobe Illustrator 24.3.0, SVG Export Plug-In . SVG Version: 6.00 Build 0)  -->
<svg version="1.1" id="Layer_1" xmlns="http://www.w3.org/2000/svg" xmlns:xlink="http://www.w3.org/1999/xlink" x="0px" y="0px"
	 viewBox="0 0 500 500" style="enable-background:new 0 0 500 500;" xml:space="preserve">

<g>
	<path id="XMLID_91_" style="fill:#C6C6C5;" d="M262.197,27c-63.547,0-115.253,51.7-115.253,115.247
		c0,63.542,51.706,115.241,115.253,115.241c63.542,0,115.235-51.699,115.235-115.241C377.432,78.7,325.738,27,262.197,27"/>
	<path id="XMLID_90_" style="fill:#AA182C;" d="M318.408,123.347c0-3.45-0.213-6.859-0.527-10.232
		c-0.84,0.817-3.545,2.959-8.883,2.959h-31.59c-13.203,0-15.535,4.598-15.535,4.598s-2.332-4.598-15.529-4.598H214.76
		c-5.344,0-8.049-2.142-8.883-2.959c-0.314,3.373-0.533,6.782-0.533,10.232c0,8.611,1.018,16.979,2.888,25.027h107.281
		C317.39,140.326,318.408,131.958,318.408,123.347"/>
	<path id="XMLID_89_" style="fill:#AA182C;" d="M261.876,219.756c25.998-14.712,45.462-39.455,53.055-68.909H208.827
		C216.414,180.3,235.878,205.044,261.876,219.756"/>
	<path style="fill:#AA182C;" d="M261.79,61.238c-44.722,0-81.112,36.384-81.112,81.1c0,44.716,36.39,81.1,81.112,81.1
		c44.716,0,81.094-36.384,81.094-81.1C342.884,97.622,306.507,61.238,261.79,61.238 M262.199,32.494
		c60.618,0,109.749,49.143,109.749,109.75c0,60.618-49.131,109.761-109.749,109.761c-60.612,0-109.761-49.143-109.761-109.761
		C152.437,81.637,201.586,32.494,262.199,32.494"/>
	<path style="fill:#FFFFFF;" d="M212.71,60.874c1.474,2.657,3.746,3.823,5.782,2.693c2.065-1.148,2.154-3.764,0.698-6.38
		c-1.361-2.438-3.651-3.882-5.758-2.71C211.366,55.63,211.254,58.252,212.71,60.874 M222.356,55.299
		c2.462,4.438,1.284,8.57-2.675,10.771c-3.977,2.213-8.007,0.509-10.155-3.349c-2.249-4.03-1.326-8.498,2.634-10.7
		C216.29,49.724,220.267,51.559,222.356,55.299"/>
	<path id="XMLID_84_" style="fill:#FFFFFF;" d="M290.023,58.644c-0.669,0.13-2.178,0.125-3.971-0.337
		c-5.155-1.332-6.971-5.244-5.871-9.487c1.308-5.089,5.658-6.965,10.167-5.8c1.752,0.45,2.989,1.124,3.503,1.61l-1.391,2.468
		c-0.592-0.455-1.474-0.964-2.699-1.278c-2.645-0.686-5.137,0.391-5.995,3.711c-0.775,2.983,0.515,5.32,3.503,6.084
		c1.036,0.272,2.19,0.361,2.947,0.254L290.023,58.644z"/>
	<path id="XMLID_83_" style="fill:#FFFFFF;" d="M335.038,92.708c-0.61-0.302-1.805-1.231-2.953-2.681
		c-3.284-4.19-2.349-8.41,1.101-11.12c4.131-3.237,8.729-2.089,11.611,1.58c1.107,1.414,1.693,2.71,1.799,3.403l-2.604,1.119
		c-0.195-0.716-0.586-1.657-1.361-2.651c-1.693-2.154-4.332-2.811-7.031-0.692c-2.42,1.894-2.823,4.539-0.917,6.965
		c0.663,0.84,1.527,1.616,2.202,1.988L335.038,92.708z"/>
	<path style="fill:#FFFFFF;" d="M200.683,68.93l-2.864-3.539c0.154-0.213,0.497-0.544,1.03-0.976
		c1.373-1.113,2.663-1.071,3.557,0.03c0.982,1.201,0.681,2.651-0.757,3.829C201.233,68.592,200.961,68.794,200.683,68.93
		 M202.369,71.007c0.29-0.154,0.627-0.384,0.982-0.681c1.598-1.29,2.634-2.811,2.87-4.415c0.189-1.243-0.254-2.562-1.207-3.734
		c-0.953-1.172-2.255-1.764-3.521-1.728c-1.326,0.006-2.77,0.651-4.438,2c-1.651,1.343-2.74,2.397-3.456,3.214l9.569,11.859
		c0.852-0.775,1.728-1.533,2.61-2.272L202.369,71.007z"/>
	<path id="XMLID_80_" style="fill:#FFFFFF;" d="M237.911,58.084l-1.036-2.805l-5.77,2.048l-4.249-11.943
		c-1.095,0.391-2.16,0.835-3.231,1.261l5.214,14.594C231.785,60.025,234.809,58.978,237.911,58.084"/>
	<path id="XMLID_79_" style="fill:#FFFFFF;" d="M242.448,56.904c1.124-0.254,2.255-0.491,3.391-0.71l-1.308-6.196l2.994-9.782
		c-1.243,0.172-2.468,0.385-3.681,0.604l-0.775,4.089c-0.219,1.166-0.396,2.119-0.533,3.125l-0.047,0.012
		c-0.568-0.911-1.071-1.651-1.77-2.64l-2.438-3.421c-1.231,0.284-2.45,0.598-3.657,0.929l6.528,7.9L242.448,56.904z"/>
	<path id="XMLID_78_" style="fill:#FFFFFF;" d="M311.179,69.608l2.669-3.699c1.48-2.036,2.722-3.817,3.847-5.545l0.071,0.059
		c-0.473,1.893-0.817,4.089-1.042,5.965l-0.852,6.652c0.982,0.764,1.947,1.539,2.888,2.343l9.155-12.558
		c-0.817-0.674-1.657-1.319-2.491-1.965l-2.74,3.705c-1.373,1.888-2.545,3.604-3.574,5.368l-0.036-0.03
		c0.45-1.811,0.858-3.888,1.077-5.735l0.71-6.67c-1.071-0.746-2.148-1.456-3.243-2.154l-9.143,12.534
		C309.392,68.442,310.291,69.004,311.179,69.608"/>
	<path id="XMLID_77_" style="fill:#FFFFFF;" d="M324.662,80.851l10.8-11.108c-0.817-0.823-1.657-1.628-2.497-2.415l-10.794,11.09
		C323.01,79.218,323.845,80.023,324.662,80.851"/>
	<path id="XMLID_76_" style="fill:#FFFFFF;" d="M275.672,55.685c0.006,0,0.018,0.006,0.024,0.006l0.266-2.882
		c0,0-3.592-0.467-6.297-0.722l0.343-3.574c1.479,0.142,3.77,0.361,5.652,0.615l0.249-2.835c-1.994-0.266-4.101-0.503-5.628-0.645
		l0.284-3.083c0,0,3.29,0.29,5.989,0.651l0.254-2.989c-3.16-0.455-6.309-0.775-9.445-0.935l-1.414,15.452
		C269.168,54.88,272.411,55.176,275.672,55.685"/>
	<path id="XMLID_75_" style="fill:#FFFFFF;" d="M250.803,39.823l0.16,3.137c1.397-0.154,3.054-0.29,4.154-0.379l0.663,12.339
		c1.154-0.095,2.308-0.16,3.456-0.201l-0.657-12.363c0,0,1.888-0.071,4.19-0.053l-0.148-3.131
		C258.68,39.155,254.733,39.391,250.803,39.823"/>
	<path id="XMLID_74_" style="fill:#FFFFFF;" d="M308.324,50.058l-2.592,5.611c-2.083-1.042-3.912-1.882-5.196-2.45l2.592-5.593
		c-1.065-0.462-2.148-0.894-3.237-1.326l-6.545,14.067c1.083,0.409,2.166,0.841,3.231,1.29l2.752-5.806
		c2.065,0.894,3.894,1.776,5.196,2.427l-2.752,5.829c1.036,0.521,2.06,1.059,3.077,1.621l6.557-14.085
		C310.395,51.094,309.354,50.579,308.324,50.058"/>
	<path id="XMLID_73_" style="fill:#1D1D1B;" d="M237.948,123.131c2.953-2.053,5.865-1.065,8.25-0.284
		c3.474,1.136,6.107-0.716,6.107-0.716l2.858,2.432v19.435c-1.699,0.758-3.267,1.255-6.64,0.213
		c-2.923-0.894-5.557-1.231-7.693-1.065v0.669c0,0.373-1.29,0.669-2.882,0.669c-1.592,0-2.882-0.296-2.882-0.669v-0.669
		c-2.13-0.166-4.764,0.172-7.693,1.065c-3.367,1.042-4.941,0.545-6.64-0.213v-19.435l2.858-2.432c0,0,2.634,1.852,6.101,0.716
		C232.083,122.066,234.995,121.078,237.948,123.131"/>
	<path id="XMLID_72_" style="fill:#C6C6C5;" d="M245.017,124.771c2.687,0.941,5.012,0.503,6.734-0.23v16.34
		c-1.574,0.639-2.876,0.716-5.403-0.16c-2.917-1-6.066-1.195-7.539-0.633v-15.103C239.685,124.239,241.638,123.588,245.017,124.771"
		/>
	<path id="XMLID_71_" style="fill:#C6C6C5;" d="M230.697,124.763c-2.77,0.971-5.161,0.521-6.936-0.225v16.369
		c1.622,0.645,2.959,0.728,5.569-0.166c3-1.03,6.238-1.231,7.759-0.651v-15.103C236.183,124.219,234.177,123.544,230.697,124.763"/>
	<path id="XMLID_70_" style="fill:#1D1D1B;" d="M285.781,123.131c2.953-2.053,5.87-1.065,8.256-0.284
		c3.468,1.136,6.102-0.716,6.102-0.716l2.858,2.432v19.435c-1.699,0.758-3.267,1.255-6.64,0.213
		c-2.929-0.894-5.557-1.231-7.693-1.065v0.669c0,0.373-1.29,0.669-2.882,0.669c-1.586,0-2.882-0.296-2.882-0.669v-0.669
		c-2.136-0.166-4.758,0.172-7.693,1.065c-3.373,1.042-4.941,0.545-6.64-0.213v-19.435l2.858-2.432c0,0,2.634,1.852,6.107,0.716
		C279.916,122.066,282.827,121.078,285.781,123.131"/>
	<path id="XMLID_69_" style="fill:#C6C6C5;" d="M293.029,124.763c2.77,0.971,5.16,0.521,6.936-0.225v16.369
		c-1.61,0.645-2.959,0.728-5.563-0.166c-3.006-1.03-6.238-1.231-7.759-0.651v-15.103
		C287.543,124.219,289.556,123.544,293.029,124.763"/>
	<path id="XMLID_68_" style="fill:#C6C6C5;" d="M278.717,124.771c-2.693,0.941-5.019,0.503-6.741-0.23v16.34
		c1.574,0.639,2.882,0.716,5.409-0.16c2.917-1,6.06-1.195,7.534-0.633v-15.103C284.049,124.239,282.096,123.588,278.717,124.771"/>
	<path id="XMLID_67_" style="fill:#FFFFFF;" d="M267.658,177.391c4.474-1.888,4.805-6.415,4.805-6.415l1.261-0.805v-0.781
		c-1.255-2.994-4.385-6.314-7.155-8.457c-1.835-1.414-1.87-2.959-1.687-3.853l0.627-0.272c0.615-0.26,0.976-0.45,1.527-0.148
		c0.545,0.302,0.698,0.113,0.698,0.113c0.432-0.19,0.414-1.101-0.035-2.03c-0.45-0.923-1.166-1.521-1.598-1.331
		c0,0-0.26-0.024-0.373,0.568c-0.107,0.598-0.497,0.722-1.113,0.989l-0.675,0.296c-0.124-0.077-0.213-0.124-0.213-0.124
		c-1.438-0.645-1.746,0.219-1.746,0.219c-1.438-0.645-1.704,0.432-1.704,0.432c-1.545-0.361-1.622,0.651-1.622,0.651
		c-2.124-0.006-1.763,1.343-1.58,1.799l-2.438,1.059l-1.113-2.367l-4.267,1.846l2.858,6.066l1.87,0.769l1.799-0.775l0.604-1.84
		l-0.876-1.853l1.947-0.834c0.219,0.598,0.787,1.29,2.018,1.367c1.947,0.124,2.486-0.332,3.906,2.971
		c1.432,3.308,3.551,4.521,3.551,4.521c-3.361-0.343-4.267,2.367-4.267,2.367c-5.373-0.237-6.557,3.74-6.806,5.853h-7.427
		c0.444,0.87,0.911,1.716,1.385,2.527h24.205c0.479-0.811,0.947-1.657,1.391-2.527H267.658z"/>
	<path id="XMLID_66_" style="fill:#FFFFFF;" d="M352.81,132.085c-0.426,0.941-0.817,2.432-0.716,3.912
		c0.089,1.592,0.805,2.397,1.811,2.344c0.959-0.059,1.462-0.828,1.982-2.71c0.757-2.61,2.065-4.391,4.308-4.527
		c2.622-0.16,4.74,1.935,4.959,5.539c0.112,1.752-0.16,3.036-0.539,3.965l-2.823-0.604c0.254-0.609,0.621-1.751,0.527-3.231
		c-0.089-1.509-0.84-2.196-1.616-2.154c-0.988,0.065-1.355,0.941-1.994,2.989c-0.84,2.775-2.178,4.113-4.344,4.249
		c-2.574,0.16-4.888-1.669-5.143-5.888c-0.107-1.758,0.26-3.521,0.692-4.415L352.81,132.085z"/>
	<path id="XMLID_65_" style="fill:#FFFFFF;" d="M338.445,184.632c-1.959,3.504-1.16,6.711,2.988,9.031l7.551,4.196
		c0.621-0.977,1.237-1.953,1.835-2.953l-7.865-4.379c-2.397-1.338-3.018-2.847-2.131-4.438c0.864-1.527,2.539-1.775,4.876-0.467
		l7.841,4.397c0.539-1.03,1.083-2.053,1.58-3.107l-7.51-4.202C343.351,180.324,340.344,181.241,338.445,184.632"/>
	<path id="XMLID_64_" style="fill:#FFFFFF;" d="M343.943,110.768l14.339-5.87c-0.42-1.083-0.846-2.16-1.302-3.226l-14.339,5.871
		C343.103,108.603,343.529,109.685,343.943,110.768"/>
	<path id="XMLID_63_" style="fill:#FFFFFF;" d="M346.434,118.225l4.468-1.106c2.438-0.604,4.533-1.16,6.504-1.764l0.018,0.083
		c-1.568,1.142-3.261,2.622-4.634,3.9l-4.93,4.592c0.26,1.201,0.479,2.414,0.692,3.64l15.067-3.711
		c-0.195-1.053-0.385-2.113-0.61-3.154l-4.492,1.083c-2.267,0.562-4.261,1.118-6.196,1.805l-0.006-0.042
		c1.515-1.107,3.166-2.426,4.521-3.711l4.853-4.592c-0.349-1.278-0.692-2.545-1.089-3.805l-15.097,3.723
		C345.842,116.172,346.144,117.196,346.434,118.225"/>
	<path id="XMLID_62_" style="fill:#FFFFFF;" d="M348.128,159.287c-0.231,1.136-0.479,2.267-0.746,3.391l15.132,3.266
		c0.26-1.13,0.533-2.255,0.757-3.391L348.128,159.287z"/>
	<path id="XMLID_61_" style="fill:#FFFFFF;" d="M345.983,202.268l-2.432-1.982c-0.823,1.142-1.823,2.468-2.503,3.344l-9.611-7.764
		c-0.704,0.923-1.426,1.817-2.172,2.704l9.634,7.782c0,0-1.207,1.45-2.758,3.149l2.42,1.982
		C341.218,208.564,343.674,205.475,345.983,202.268"/>
	<path id="XMLID_60_" style="fill:#FFFFFF;" d="M317.135,210.477c-0.006,0.006-0.012,0.006-0.024,0.018l1.959,2.125
		c0,0,2.758-2.332,4.758-4.167l2.42,2.657c-1.089,1.012-2.805,2.55-4.255,3.77l1.929,2.095c1.533-1.296,3.131-2.693,4.267-3.74
		l2.089,2.296c0,0-2.432,2.237-4.521,3.989l2.048,2.207c2.456-2.03,4.817-4.148,7.042-6.362l-10.475-11.446
		C322.106,206.204,319.704,208.4,317.135,210.477"/>
	<path id="XMLID_59_" style="fill:#FFFFFF;" d="M361.252,170.792l-2.953-1.047c-0.402,1.355-0.899,2.929-1.243,3.988l-11.647-4.101
		c-0.367,1.107-0.734,2.202-1.142,3.279l11.67,4.107c0,0-0.633,1.776-1.539,3.888l2.947,1.065
		C358.873,178.332,360.157,174.586,361.252,170.792"/>
	<path id="XMLID_58_" style="fill:#FFFFFF;" d="M365.169,145.853l-3.119-0.29c-0.053,1.414-0.148,3.066-0.225,4.172l-12.298-1.095
		c-0.077,1.154-0.172,2.314-0.29,3.462l12.327,1.095c0,0-0.201,1.87-0.545,4.148l3.119,0.296
		C364.719,153.742,365.05,149.806,365.169,145.853"/>
	<path id="XMLID_57_" style="fill:#FFFFFF;" d="M175.125,155.634c0.426,0.539,1.095,1.888,1.497,3.699
		c1.16,5.19-1.503,8.605-5.788,9.558c-5.137,1.136-8.782-1.894-9.8-6.445c-0.391-1.763-0.349-3.172-0.154-3.853l2.841,0.125
		c-0.136,0.728-0.195,1.746,0.071,2.971c0.604,2.681,2.699,4.415,6.048,3.675c3.006-0.675,4.509-2.882,3.841-5.888
		c-0.237-1.054-0.681-2.125-1.124-2.758L175.125,155.634z"/>
	<path style="fill:#FFFFFF;" d="M169.939,181.617c-0.16-0.201-0.385-0.633-0.698-1.414c-0.604-1.486-0.278-2.645,1.012-3.166
		c1.243-0.515,2.438,0.118,3.083,1.728l0.515,1.267L169.939,181.617z M176.183,179.09l-0.385-0.952
		c-0.521-1.343-0.302-2.142,1.337-3.279c1.089-0.757,1.906-1.397,2.876-2.231c-0.42-1.136-0.817-2.296-1.178-3.456
		c-1.355,1.13-2.598,2.012-3.693,2.852c-1.16,0.888-1.87,1.811-1.87,2.977l-0.059,0.024c-0.947-1.054-2.722-1.841-4.521-1.107
		c-1.314,0.532-2.142,1.408-2.462,2.55c-0.397,1.344-0.118,2.959,0.746,5.072c0.704,1.734,1.444,3.208,2.036,4.178l14.114-5.723
		c-0.497-1.036-0.965-2.089-1.426-3.148L176.183,179.09z"/>
	<path id="XMLID_54_" style="fill:#FFFFFF;" d="M174.596,142.246v-0.035l-2.894,0.189c0,0,0.095,3.616,0.254,6.327l-3.58,0.207
		c-0.101-1.48-0.225-3.776-0.254-5.675l-2.846,0.189c0.047,2.006,0.13,4.119,0.225,5.664l-3.089,0.177c0,0-0.219-3.296-0.266-6.018
		l-3.007,0.207c0.042,3.196,0.201,6.356,0.521,9.475l15.481-0.959C174.791,148.791,174.596,145.542,174.596,142.246"/>
	<path style="fill:#FFFFFF;" d="M184.034,196.674c2.557-1.639,3.58-3.983,2.326-5.941c-1.273-1.988-3.888-1.911-6.409-0.29
		c-2.349,1.509-3.645,3.888-2.349,5.906C178.886,198.349,181.513,198.295,184.034,196.674 M177.868,187.4
		c4.273-2.734,8.469-1.823,10.913,1.989c2.462,3.829,1.012,7.965-2.699,10.35c-3.894,2.492-8.397,1.858-10.848-1.953
		C172.677,193.804,174.264,189.715,177.868,187.4"/>
	<path id="XMLID_51_" style="fill:#FFFFFF;" d="M171.125,137.9c0.556-0.864,1.178-2.272,1.331-3.752
		c0.148-1.592-0.426-2.492-1.426-2.592c-0.953-0.089-1.574,0.586-2.385,2.361c-1.166,2.456-2.728,4.001-4.959,3.788
		c-2.616-0.255-4.379-2.651-4.03-6.243c0.172-1.758,0.639-2.971,1.16-3.835l2.693,1.041c-0.349,0.562-0.894,1.64-1.036,3.113
		c-0.148,1.503,0.491,2.296,1.26,2.367c0.977,0.095,1.491-0.704,2.438-2.627c1.26-2.604,2.787-3.723,4.953-3.509
		c2.568,0.254,4.557,2.415,4.148,6.622c-0.172,1.751-0.817,3.438-1.379,4.243L171.125,137.9z"/>
	<path style="fill:#FFFFFF;" d="M181.39,90.303l-0.746,1.148l-3.551-2.314c0.089-0.242,0.314-0.669,0.769-1.379
		c0.87-1.343,2.012-1.746,3.178-0.982C182.171,87.51,182.337,88.847,181.39,90.303 M182.751,92.824l0.562-0.864
		c0.805-1.195,1.586-1.473,3.456-0.781c1.391,0.515,2.444,0.834,3.492,1.095c0.692-1,1.414-1.995,2.154-2.971
		c-1.409-0.367-2.977-0.906-4.456-1.385c-1.397-0.438-2.562-0.491-3.515,0.172l-0.059-0.035c0.32-1.385-0.047-3.284-1.675-4.338
		c-1.189-0.781-2.385-0.953-3.509-0.568c-1.326,0.438-2.486,1.598-3.734,3.509c-1.018,1.574-1.805,3.03-2.255,4.072l12.801,8.291
		c0.562-1,1.148-1.988,1.752-2.965L182.751,92.824z"/>
	<path id="XMLID_48_" style="fill:#FFFFFF;" d="M201.649,205.523l-5.687,3.586c-1.361,0.829-2.574,1.687-4.006,2.71l-0.03-0.035
		c1.118-1.367,1.965-2.563,2.864-3.865l3.746-5.521c-0.864-0.917-1.71-1.846-2.521-2.799l-13.594,7.924
		c0.734,0.906,1.497,1.775,2.273,2.651l5.326-3.527c1.551-1.071,3.066-2.107,4.45-3.142l0.036,0.035
		c-1.059,1.367-2.048,2.704-3.095,4.213l-3.853,5.557c0.828,0.87,1.669,1.728,2.527,2.574l5.569-3.551
		c1.633-1.071,3.213-2.118,4.574-3.113l0.036,0.036c-0.929,1.272-2.119,2.9-3.19,4.444l-3.681,5.297
		c0.894,0.793,1.793,1.574,2.71,2.343l8.362-13.239C203.513,207.263,202.566,206.405,201.649,205.523"/>
	<path id="XMLID_47_" style="fill:#FFFFFF;" d="M184.199,102.478c0.012-0.006,0.012-0.012,0.012-0.012l-2.645-1.178
		c0,0-1.58,3.249-2.687,5.729l-3.284-1.462c0.61-1.361,1.55-3.462,2.397-5.166l-2.604-1.136c-0.9,1.793-1.793,3.716-2.414,5.131
		l-2.829-1.266c0,0,1.32-3.024,2.533-5.462l-2.758-1.201c-1.438,2.846-2.752,5.728-3.906,8.646l14.191,6.285
		C181.359,108.384,182.678,105.413,184.199,102.478"/>
	<path id="XMLID_46_" style="fill:#FFFFFF;" d="M161.133,121.97l3.03,0.793c0.284-1.379,0.657-2.989,0.917-4.066l11.937,3.131
		c0.272-1.124,0.556-2.249,0.87-3.361l-11.972-3.136c0,0,0.503-1.817,1.219-4.001l-3.024-0.817
		C162.89,114.265,161.914,118.088,161.133,121.97"/>
	<polygon id="XMLID_45_" style="fill:#FFFFFF;" points="240.811,230.974 240.769,230.969 237.698,231.649 237.727,228.98 
		241.994,228.081 244.77,228.714 241.468,243.201 238.189,242.444 	"/>
	<path style="fill:#FFFFFF;" d="M252.192,233.698c-0.083,1,0.746,1.71,1.894,2.183c0.823-0.166,1.592-0.829,1.675-1.734
		c0.083-0.941-0.361-1.888-1.639-2.006C252.937,232.035,252.274,232.787,252.192,233.698 M255.447,241.054
		c0.112-1.302-0.799-2.166-2.113-2.645c-1.16,0.219-1.9,0.977-1.988,2.048c-0.118,1.071,0.615,2.142,1.911,2.261
		C254.464,242.824,255.358,242.096,255.447,241.054 M250.76,236.965c-1.373-0.882-1.965-2.148-1.852-3.45
		c0.219-2.497,2.622-3.965,5.581-3.705c3.462,0.308,4.717,2.432,4.563,4.237c-0.118,1.273-0.905,2.468-2.45,3.06l-0.006,0.071
		c1.403,0.681,2.574,2.018,2.403,3.906c-0.237,2.692-2.651,4.314-6.09,4.012c-3.758-0.331-5.303-2.604-5.119-4.616
		c0.154-1.776,1.29-2.906,2.965-3.474L250.76,236.965z"/>
	<path style="fill:#FFFFFF;" d="M271.124,239.946c-0.089-1.373-0.899-2.497-2.385-2.403c-0.935,0.059-1.669,0.687-1.941,1.426
		c-0.107,0.219-0.124,0.503-0.107,0.905c0.178,1.568,1.024,2.929,2.616,2.829C270.52,242.621,271.225,241.449,271.124,239.946
		 M272.527,232.389c-0.397,0-0.805,0.053-1.349,0.13c-3.054,0.456-4.326,2.125-4.598,3.865l0.065-0.012
		c0.681-0.781,1.704-1.278,3.072-1.373c2.485-0.16,4.705,1.456,4.912,4.539c0.195,2.941-1.906,5.51-5.101,5.717
		c-3.971,0.267-6.101-2.55-6.338-6.083c-0.189-2.787,0.686-5.178,2.207-6.788c1.373-1.45,3.267-2.284,5.557-2.557
		c0.639-0.107,1.071-0.112,1.391-0.112L272.527,232.389z"/>
	<path id="XMLID_39_" style="fill:#FFFFFF;" d="M286.352,230.14l-5.622,1.237l0.178,2.308c0.308-0.113,0.574-0.178,0.929-0.255
		c1.391-0.302,2.882-0.302,4.054,0.207c1.249,0.497,2.19,1.551,2.562,3.249c0.598,2.699-1.201,5.604-5.107,6.463
		c-1.764,0.39-3.332,0.314-4.219,0.065l0.065-2.687c0.692,0.183,2.095,0.29,3.409,0c1.414-0.307,2.758-1.308,2.414-2.846
		c-0.331-1.497-1.71-2.154-4.61-1.509c-0.805,0.172-1.355,0.337-1.911,0.562l-0.746-7.818l7.989-1.763L286.352,230.14z"/>
	<path id="XMLID_38_" style="fill:#FFFFFF;" d="M220.308,226.575c0,1.687-1.361,3.048-3.048,3.048c-1.681,0-3.042-1.361-3.042-3.048
		c0-1.669,1.361-3.036,3.042-3.036C218.947,223.54,220.308,224.906,220.308,226.575"/>
	<path id="XMLID_37_" style="fill:#FFFFFF;" d="M303.266,226.575c0,1.687,1.361,3.048,3.048,3.048c1.675,0,3.036-1.361,3.036-3.048
		c0-1.669-1.361-3.036-3.036-3.036C304.627,223.54,303.266,224.906,303.266,226.575"/>
	<path id="XMLID_36_" style="fill:#1D1D1B;" d="M224.462,92.106l-2.77-6.462c-8.563,1.817-12.895,8.966-12.895,8.966
		S214.212,96.136,224.462,92.106"/>
	<path id="XMLID_35_" style="fill:#FFFFFF;" d="M221.691,85.646h-13.907l3.492,5.906C213.4,89.374,216.874,86.664,221.691,85.646"/>
	<path id="XMLID_34_" style="fill:#FFFFFF;" d="M313.111,91.555l3.492-5.906h-13.907C307.513,86.661,310.992,89.377,313.111,91.555"
		/>
	<path id="XMLID_33_" style="fill:#1D1D1B;" d="M243.599,93.445c0,1.74,4.592,3.231,11.179,3.894V86.391
		C254.778,89.989,243.599,89.166,243.599,93.445"/>
	<path id="XMLID_32_" style="fill:#FFFFFF;" d="M240.284,182.749c0.533-1.538,0.438-3.29-0.278-4.847
		c-1.213,0.485-2.16,1.432-2.74,2.622c0.586,1.403,1.207,2.758,1.858,4.018C239.609,184.028,240.041,183.448,240.284,182.749"/>
	<path id="XMLID_31_" style="fill:#FFFFFF;" d="M244.496,189.017c0.331-1.746-0.059-3.616-1.053-5.172
		c-1.332,0.817-2.261,2.172-2.622,3.764c0.852,1.45,1.692,2.787,2.491,3.953C243.875,190.816,244.318,189.988,244.496,189.017"/>
	<path id="XMLID_30_" style="fill:#FFFFFF;" d="M237.244,175.089c0.728-1.432,0.84-3.166,0.325-4.799
		c-1.249,0.308-2.29,1.071-3.024,2.125c0.361,1.491,0.799,2.917,1.272,4.32C236.386,176.279,236.901,175.77,237.244,175.089"/>
	<path id="XMLID_29_" style="fill:#FFFFFF;" d="M235.438,166.926c0.923-1.284,1.272-2.965,0.976-4.64
		c-1.16,0.101-2.19,0.586-3.018,1.326c0.041,1.598,0.16,3.172,0.384,4.705C234.415,167.967,235,167.535,235.438,166.926"/>
	<path id="XMLID_28_" style="fill:#FFFFFF;" d="M245.854,196.473c-12.114-12.901-13.961-27.371-13.937-34.969l0.207-0.201
		l-0.006-0.018c0.953-0.906,1.621-2.089,1.852-3.468c0.308-1.823-0.13-3.764-1.207-5.362c-1.444,0.917-2.444,2.444-2.74,4.237
		c-0.266,1.604,0.071,3.284,0.876,4.758c-0.201,1.261-0.331,2.503-0.391,3.74c-0.136-0.409-0.29-0.811-0.509-1.196
		c-0.888-1.562-2.314-2.722-3.959-3.237c-0.39,1.669-0.112,3.492,0.775,5.048c0.716,1.249,2.385,2.622,3.764,3.314
		c0.095,1.326,0.243,2.634,0.48,3.93c-0.142-0.207-0.266-0.42-0.426-0.615c-1.148-1.361-2.74-2.231-4.415-2.397
		c-0.059,1.746,0.545,3.515,1.704,4.882c1.089,1.302,2.592,2.125,4.178,2.355c0.42,1.373,0.882,2.728,1.426,4.048
		c-0.189-0.195-0.379-0.408-0.586-0.58c-1.367-1.119-3.054-1.651-4.693-1.468c0.254,1.763,1.183,3.403,2.562,4.539
		c1.326,1.077,2.965,1.592,4.557,1.456c0.615,1.201,1.266,2.373,1.965,3.515c-0.249-0.183-0.497-0.361-0.763-0.515
		c-1.604-0.864-3.456-1.036-5.078-0.479c0.621,1.811,1.894,3.332,3.539,4.225c1.107,0.592,2.314,0.864,3.503,0.793
		c0.444-0.03,0.87-0.118,1.284-0.237c1.87,2.651,3.888,5.101,5.918,7.344C245.617,198.592,245.7,197.408,245.854,196.473"/>
	<path id="XMLID_27_" style="fill:#FFFFFF;" d="M283.461,182.749c-0.527-1.538-0.432-3.29,0.284-4.847
		c1.213,0.485,2.16,1.432,2.74,2.622c-0.592,1.403-1.213,2.758-1.864,4.018C284.141,184.028,283.715,183.448,283.461,182.749"/>
	<path id="XMLID_26_" style="fill:#FFFFFF;" d="M279.251,189.017c-0.326-1.746,0.059-3.616,1.053-5.172
		c1.332,0.817,2.261,2.172,2.622,3.764c-0.846,1.45-1.692,2.787-2.485,3.953C279.872,190.816,279.428,189.988,279.251,189.017"/>
	<path id="XMLID_25_" style="fill:#FFFFFF;" d="M286.504,175.089c-0.728-1.432-0.841-3.166-0.32-4.799
		c1.243,0.308,2.284,1.071,3.018,2.125c-0.355,1.491-0.799,2.917-1.272,4.32C287.362,176.279,286.847,175.77,286.504,175.089"/>
	<path id="XMLID_24_" style="fill:#FFFFFF;" d="M288.312,166.926c-0.923-1.284-1.273-2.965-0.977-4.64
		c1.16,0.101,2.184,0.586,3.018,1.326c-0.041,1.598-0.166,3.172-0.384,4.705C289.336,167.967,288.744,167.535,288.312,166.926"/>
	<path id="XMLID_23_" style="fill:#FFFFFF;" d="M277.891,196.473c12.12-12.901,13.96-27.371,13.943-34.969l-0.207-0.201l0.006-0.018
		c-0.953-0.906-1.622-2.089-1.852-3.468c-0.308-1.823,0.13-3.764,1.201-5.362c1.45,0.917,2.45,2.444,2.746,4.237
		c0.266,1.604-0.071,3.284-0.876,4.758c0.201,1.261,0.331,2.503,0.385,3.74c0.142-0.409,0.296-0.811,0.515-1.196
		c0.888-1.562,2.314-2.722,3.953-3.237c0.39,1.669,0.118,3.492-0.775,5.048c-0.71,1.249-2.379,2.622-3.758,3.314
		c-0.095,1.326-0.243,2.634-0.479,3.93c0.136-0.207,0.266-0.42,0.426-0.615c1.142-1.361,2.74-2.231,4.409-2.397
		c0.071,1.746-0.539,3.515-1.693,4.882c-1.101,1.302-2.604,2.125-4.184,2.355c-0.414,1.373-0.882,2.728-1.426,4.048
		c0.189-0.195,0.373-0.408,0.586-0.58c1.367-1.119,3.048-1.651,4.693-1.468c-0.26,1.763-1.184,3.403-2.568,4.539
		c-1.32,1.077-2.959,1.592-4.545,1.456c-0.621,1.201-1.272,2.373-1.971,3.515c0.243-0.183,0.491-0.361,0.757-0.515
		c1.61-0.864,3.462-1.036,5.084-0.479c-0.621,1.811-1.9,3.332-3.539,4.225c-1.107,0.592-2.314,0.864-3.504,0.793
		c-0.444-0.03-0.87-0.118-1.284-0.237c-1.876,2.651-3.888,5.101-5.918,7.344C278.133,198.592,278.044,197.408,277.891,196.473"/>
	<path id="XMLID_22_" style="fill:#1D1D1B;" d="M274.262,186.47c-1.71-1.864-4.007-2.888-6.451-2.888
		c-2.19,0-4.249,0.817-5.888,2.314c-3.468-3.178-9.102-2.947-12.333,0.568c-1.846,2-2.775,4.758-2.539,7.593
		c0.018,0.16,0.03,0.249,0.03,0.249c0.018,0.13,0.036,0.272,0.065,0.438c0.059,0.367,0.142,0.787,0.325,1.456
		c0.053,0.177,0.101,0.343,0.16,0.503c0.527,1.551,1.207,2.983,2.077,4.409c2.32,3.728,5.959,7.309,10.83,10.628l1.385,0.947
		l1.385-0.947c1.971-1.343,3.764-2.752,5.433-4.278c3.391-3.409,5.912-6.185,7.498-10.807l0.077-0.26
		c0.254-0.852,0.426-1.698,0.503-2.509C277.002,191.14,276.073,188.429,274.262,186.47"/>
	<path id="XMLID_21_" style="fill:#C6C6C5;" d="M249.916,194.087c0.047,0.29,0.118,0.615,0.213,0.989
		c0.053,0.177,0.095,0.355,0.16,0.521c0.485,1.421,1.095,2.663,1.787,3.811c1.698,2.722,4.669,6.078,9.848,9.617
		c1.941-1.32,3.563-2.616,4.93-3.87c2.917-2.936,5.308-5.451,6.723-9.587c0.018-0.053,0.036-0.112,0.047-0.165
		c0.249-0.823,0.349-1.474,0.397-1.923c0.13-1.941-0.485-3.941-1.858-5.433c-2.491-2.71-6.533-2.71-9.037,0
		c-0.515,0.562-0.894,1.208-1.201,1.888c-0.302-0.681-0.686-1.326-1.201-1.888c-2.497-2.71-6.539-2.71-9.037,0
		c-1.391,1.509-2,3.569-1.841,5.545c0.006,0.077,0.018,0.16,0.036,0.249C249.892,193.922,249.904,194.004,249.916,194.087"/>
	<path id="XMLID_20_" style="fill:#1D1D1B;" d="M299.927,92.106l2.77-6.462c8.563,1.817,12.895,8.966,12.895,8.966
		S310.171,96.136,299.927,92.106"/>
	<path id="XMLID_19_" style="fill:#1D1D1B;" d="M280.789,93.445c0,1.74-4.592,3.231-11.179,3.894V86.391
		C269.61,89.989,280.789,89.166,280.789,93.445"/>
	<path id="XMLID_18_" style="fill:#FFFFFF;" d="M293.302,104.532c0,0,5.444,2.752,12.049,3.368l10.232-13.286
		c0,0-7.782,2.231-22.406-5.658c-15.109-8.143-23.571-6.167-23.571-2.562c0,3.592,11.179,2.769,11.179,7.054
		c0,2.332-8.303,4.225-18.594,4.261c-10.286-0.036-18.594-1.929-18.594-4.261c0-4.285,11.185-3.462,11.185-7.054
		c0-3.604-8.469-5.581-23.571,2.562c-14.629,7.889-22.412,5.658-22.412,5.658l10.232,13.28c2.852-0.19,6.877-1.018,12.179-3.421
		c4.835-2.604,8.978-4.16,12.386-4.971v7.942c0,2.355,8.445,4.267,18.855,4.267c10.404,0,18.34-1.911,18.34-4.267v-7.823
		c3.314,0.846,7.794,2.379,12.386,4.853"/>
	<polygon id="XMLID_17_" style="fill:#1D1D1B;" points="221.429,96.596 221.429,103.805 224.891,103.059 224.891,101.87 
		222.921,102.296 222.921,96.277 	"/>
	<polygon id="XMLID_16_" style="fill:#1D1D1B;" points="225.77,95.59 225.77,102.798 229.132,101.662 229.132,100.443 
		227.214,101.088 227.214,99.135 228.907,98.567 228.907,97.407 227.214,97.975 227.214,96.318 229.001,95.714 229.001,94.495 	"/>
	<polygon id="XMLID_15_" style="fill:#1D1D1B;" points="232.907,92.682 232.907,95.576 231.463,96.256 231.463,93.368 
		230.084,94.025 230.084,101.233 231.463,100.577 231.463,97.558 232.907,96.872 232.907,99.896 234.292,99.239 234.292,92.025 	"/>
	<path style="fill:#1D1D1B;" d="M236.928,94.11l0.26-0.107c0.615-0.26,0.959-0.899,0.959-1.527c0-0.621-0.249-0.941-0.876-0.704
		c-0.124,0.059-0.266,0.13-0.343,0.183V94.11z M235.52,91.559c0.438-0.272,1-0.556,1.539-0.781c0.775-0.332,1.474-0.509,1.935-0.284
		c0.444,0.207,0.586,0.633,0.586,1.255c0,0.769-0.39,1.621-1.124,2.267v0.018c0.497-0.006,0.746,0.343,0.888,1.059
		c0.136,0.746,0.331,1.55,0.462,1.77l-1.474,0.615c-0.095-0.165-0.26-0.816-0.367-1.574c-0.13-0.834-0.361-0.994-0.817-0.805
		l-0.219,0.095v2.876l-1.408,0.592V91.559z"/>
	<path id="XMLID_12_" style="fill:#1D1D1B;" d="M283.063,88.867l1.432,0.545v3.243l0.03,0.012c0.124-0.254,0.231-0.533,0.349-0.799
		l0.982-1.935l1.586,0.604l-1.663,2.503l1.681,4.711l-1.568-0.598l-1.071-3.391l-0.326,0.467v2.391l-1.432-0.55V88.867z"/>
	<path id="XMLID_11_" style="fill:#1D1D1B;" d="M289.383,91.445v4.687c0,1.053,0.308,1.515,0.681,1.686
		c0.396,0.183,0.692,0.024,0.692-1.059v-4.687l1.391,0.639v4.432c0,1.852-0.704,2.539-2.071,1.911
		c-1.497-0.686-2.083-1.988-2.083-3.799v-4.45L289.383,91.445z"/>
	<path id="XMLID_10_" style="fill:#1D1D1B;" d="M293.305,100.548V93.34l1.302,0.532l1.119,3.284
		c0.231,0.645,0.574,1.722,0.781,2.421l0.018,0.012c-0.047-0.781-0.136-2.065-0.136-3.397v-1.592l1.243,0.509v7.208l-1.296-0.532
		l-1.118-3.19c-0.249-0.71-0.574-1.764-0.74-2.48l-0.03-0.006c0.047,0.74,0.101,1.876,0.101,3.332v1.616L293.305,100.548z"/>
	<path id="XMLID_9_" style="fill:#1D1D1B;" d="M298.558,101.16c0.302,0.243,0.834,0.503,1.249,0.615
		c0.686,0.183,1.042-0.065,1.042-0.532c0-0.527-0.343-0.876-0.982-1.438c-1.042-0.882-1.432-1.746-1.432-2.403
		c0-1.148,0.811-1.894,2.385-1.468c0.515,0.136,0.988,0.391,1.195,0.58l-0.237,1.142c-0.213-0.183-0.539-0.39-0.959-0.503
		c-0.627-0.172-0.929,0.112-0.929,0.491c0,0.432,0.219,0.716,1.036,1.409c1.012,0.846,1.373,1.675,1.373,2.432
		c0,1.314-1.024,1.905-2.503,1.509c-0.61-0.172-1.195-0.474-1.45-0.687L298.558,101.16z"/>
	<polygon id="XMLID_8_" style="fill:#1D1D1B;" points="302.697,97.779 304.064,98.004 304.064,103.91 305.579,104.152 
		305.579,98.24 306.963,98.46 306.963,97.169 302.697,96.489 	"/>
	<path id="XMLID_7_" style="fill:#1D1D1B;" d="M254.799,100.864v4.664c0,1.053,0.373,1.403,0.822,1.438
		c0.491,0.036,0.84-0.225,0.84-1.308v-4.669l1.699,0.136v4.421c0,1.841-0.858,2.776-2.521,2.645
		c-1.823-0.142-2.533-1.231-2.533-3.03v-4.427L254.799,100.864z"/>
	<path id="XMLID_6_" style="fill:#1D1D1B;" d="M259.611,108.355v-7.172h1.55l1.355,2.811c0.272,0.557,0.686,1.486,0.929,2.101h0.03
		c-0.047-0.757-0.166-2-0.166-3.32v-1.586l1.491,0.006v7.172l-1.556-0.006l-1.338-2.728c-0.296-0.604-0.686-1.527-0.893-2.16h-0.024
		c0.048,0.728,0.113,1.828,0.113,3.278v1.604H259.611z"/>
	<path style="fill:#1D1D1B;" d="M268.03,107.087c0.089,0.012,0.207,0,0.296-0.006c0.817-0.059,1.527-0.769,1.527-2.752
		c0-1.468-0.461-2.332-1.485-2.255c-0.118,0.012-0.231,0.018-0.337,0.059V107.087z M266.332,101.252
		c0.432-0.118,1.047-0.219,1.722-0.272c1.107-0.083,1.864,0.077,2.426,0.455c0.746,0.503,1.136,1.421,1.136,2.817
		c0,1.444-0.456,2.509-1.219,3.119c-0.592,0.509-1.444,0.811-2.651,0.899c-0.544,0.035-1.077,0.035-1.414,0.018V101.252z"/>
	<path id="XMLID_3_" style="fill:#AA182C;" d="M469.902,317.648l0.988-0.089v-9.984h-73.052v9.984l0.988,0.089
		c18.245,1.663,20.251,2.527,20.251,23.122v96.321c0,20.589-2.006,21.459-20.251,23.116l-0.988,0.088v9.984h73.052v-9.984
		l-0.988-0.088c-18.31-1.663-20.003-2.415-20.003-23.116V340.77C449.899,320.063,451.591,319.317,469.902,317.648"/>
	<path style="fill:#AA182C;" d="M327.797,393.776c-6.392,0-11.369-1.201-13.978-2.332v-62.038c0-4.569,0.627-7.048,2.154-8.362
		c1.154-1.16,4.415-2.397,10.096-2.397c20.038,0,32.005,13.623,32.005,36.449C358.074,391.9,332.851,393.776,327.797,393.776
		 M373.614,317.41c-9.575-6.711-23.352-9.836-43.343-9.836h-123.1v9.972c10.433,0.509,18.647,5.681,18.647,12.002
		c0,0.556-0.059,1.13-0.183,1.663c-0.26,1.621-0.645,3.498-1.142,5.604c-3.45,14.475-14.345,55.173-24.193,86.521l-41.402-114.028
		h-11.949l-36.467,113.377l-27.246-93.043c0,0-3.965-10.717,16.458-12.108v-9.96H29.11v9.936c0,0,16.76-0.551,21.648,13.984
		L94.095,473h12.712l37.532-113.093L185.274,473h12.682c21.388-72.164,35.898-116.04,40.97-130.149
		c3.225-9.569,5.575-15.197,8.96-18.736c3.687-3.8,9.149-6.214,15.263-6.214c11.096,0,20.092,6.995,20.092,15.831V437.09
		c0,20.589-2,21.465-20.251,23.122l-0.988,0.089v9.984h75.525v-9.99l-1.006-0.083c-20.784-1.675-22.701-2.426-22.701-23.122v-31.643
		c1.823,0.349,3.639,0.651,5.456,0.864c3.758,0.497,7.8,0.497,10.747,0.497c2.947,0,6.983,0,10.741-0.497
		c24.583-2.864,50.853-18.014,50.853-51.954C391.617,338.526,385.557,326.092,373.614,317.41"/>
</g>
</svg>
